<mxfile host="app.diagrams.net" modified="2023-04-04T18:27:09.929Z" agent="Mozilla/5.0 (Macintosh; Intel Mac OS X 10_15_7) AppleWebKit/537.36 (KHTML, like Gecko) Chrome/111.0.0.0 Safari/537.36" version="21.1.1" etag="dc9nXKmRiIWApQPu5mlc" type="github">
  <diagram name="Page-1" id="lt5WdSJExkgqK6rfkLQR">
    <mxGraphModel>
      <root>
        <mxCell id="0" />
        <mxCell id="1" parent="0" />
      </root>
    </mxGraphModel>
  </diagram>
</mxfile>
